# xmcd CD database file
#
# Track frame offsets:
#	182
#	12432
#	23197
#	38320
#	49065
#	75757
#	90250
#	105720
#	122175
#	135247
#	155767
#	170547
#	183865
#	200202
#	215212
#	231090
#	249822
#	260722
#	278900
#	293062
#
# Disc length: 4113 seconds
#
# Revision: 0
# Processed by: cddbd v1.4PL0 Copyright (c) Steve Scherf et al.
# Submitted via: Feurio! 1.65 - http://www.feurio.com
#
DISCID=0c100f14
DTITLE=Barefoot Jerry - Keys to The Country - Barefootin'
DYEAR=1900
DGENRE=
TTITLE0=The Battle Of New Orleans
TTITLE1=Summit Ridge Drive
TTITLE2=Woes Of The Road
TTITLE3=Wilma Lou
TTITLE4=Appalachian Fever
TTITLE5=You Can't Say It All
TTITLE6=Tonite's The Nite I Do
TTITLE7=Georgia On My Mind
TTITLE8=Uncle Pen
TTITLE9=My God (Is Alright With Me)
TTITLE10=Barefootin'
TTITLE11=I Ain't Gettin' No Touchin'
TTITLE12=Keep On Funkin'
TTITLE13=Sentimental Man
TTITLE14=Dixie Dancer
TTITLE15=Hiroshima Hole
TTITLE16=Diana
TTITLE17=Tokin' Ticket
TTITLE18=Headin' For The Hills
TTITLE19=Highland Grass
EXTD=
EXTT0=
EXTT1=
EXTT2=
EXTT3=
EXTT4=
EXTT5=
EXTT6=
EXTT7=
EXTT8=
EXTT9=
EXTT10=
EXTT11=
EXTT12=
EXTT13=
EXTT14=
EXTT15=
EXTT16=
EXTT17=
EXTT18=
EXTT19=
PLAYORDER=
